# xmcd
#
# Track frame offsets: 
#        222
#        11327
#        24175
#        37617
#        48935
#        59155
#        70922
#        82052
#        91990
#        101020
#        112260
#        124315
#        132867
#        142170
#
# Disc length: 2037 seconds
#
# Revision: 5
# Processed by: cddbd v1.5.2PL0 Copyright (c) Steve Scherf et al.
# Submitted via: ExactAudioCopy v1.1
#
DISCID=c107f30e
DTITLE=Buck Owens and his Buckaroos - Together Again, My Heart Skips A B
DTITLE=eat (1964)
DYEAR=1995
DGENRE=Country
TTITLE0=My Heart Skips a Beat
TTITLE1=Close Up the Honky Tonks
TTITLE2=I Don't Hear You
TTITLE3=Save the Last Dance for Me
TTITLE4=Over and Over Again
TTITLE5=Truck Drivin' Man
TTITLE6=Together Again
TTITLE7=A-11
TTITLE8=Ain't It Amazin' Gracie
TTITLE9=Getting Used to Losing You
TTITLE10=Storm of Love
TTITLE11=Hello Trouble
TTITLE12=Love's Gonna Live Here
TTITLE13=Act Naturally
EXTD=
EXTT0=
EXTT1=
EXTT2=
EXTT3=
EXTT4=
EXTT5=
EXTT6=
EXTT7=
EXTT8=
EXTT9=
EXTT10=
EXTT11=
EXTT12=
EXTT13=
PLAYORDER=
